<?xml version="1.0" encoding="UTF-8"?>
<svg version="1.1" xmlns="http://www.w3.org/2000/svg" width="258" height="260">
<path d="M0 0 C3.43120353 2.90332607 6.73279013 5.91401413 10 9 C10.82371094 9.74765625 11.64742187 10.4953125 12.49609375 11.265625 C19.67706237 18.03209153 24.92993184 25.60335923 30 34 C30.55349121 34.91507324 30.55349121 34.91507324 31.11816406 35.84863281 C46.98616562 62.5926173 51.60228542 95.2241946 44.2578125 125.45703125 C35.8276194 157.02015517 15.43615026 184.80937217 -12.7109375 201.57421875 C-28.95027754 210.928763 -54.16601015 223.42854962 -73.390625 218.37109375 C-74.00421875 218.06300781 -74.6178125 217.75492188 -75.25 217.4375 C-75.87390625 217.14746094 -76.4978125 216.85742188 -77.140625 216.55859375 C-81.29267694 213.07819727 -82.81949728 209.93453647 -83.31542969 204.61938477 C-83.39376686 200.59239649 -83.34959108 196.58795267 -83.25 192.5625 C-83.2299083 191.14911379 -83.21166223 189.73570007 -83.1953125 188.32226562 C-83.15151817 184.88093317 -83.08263903 181.44064425 -83 178 C-83.68634521 177.89042969 -84.37269043 177.78085938 -85.07983398 177.66796875 C-85.98032471 177.50941406 -86.88081543 177.35085937 -87.80859375 177.1875 C-89.14748657 176.96126953 -89.14748657 176.96126953 -90.51342773 176.73046875 C-94.5196461 175.55358064 -95.77398969 173.44672564 -98 170 C-99.11823815 167.76352369 -99.19396061 166.35108471 -99.31640625 163.8671875 C-99.35830078 163.06152344 -99.40019531 162.25585938 -99.44335938 161.42578125 C-99.48267578 160.58402344 -99.52199219 159.74226562 -99.5625 158.875 C-99.60568359 158.02550781 -99.64886719 157.17601562 -99.69335938 156.30078125 C-99.79954236 154.20071777 -99.90028497 152.10038052 -100 150 C-100.97839844 149.63648438 -100.97839844 149.63648438 -101.9765625 149.265625 C-111.61832313 145.56819467 -120.48115706 140.51912639 -125.04600525 130.76487732 C-127.96073153 123.39655601 -128.57435964 116.94706707 -128.49609375 109.0703125 C-128.49754898 107.87695282 -128.49900421 106.68359314 -128.50050354 105.45407104 C-128.49885416 102.95145201 -128.48740179 100.4488218 -128.46655273 97.94628906 C-128.43742244 94.11479893 -128.44600021 90.28467998 -128.45898438 86.453125 C-128.45275128 84.01301412 -128.44436371 81.57290758 -128.43359375 79.1328125 C-128.43652939 77.99006866 -128.43946503 76.84732483 -128.44248962 75.66995239 C-128.42980545 74.6046933 -128.41712128 73.5394342 -128.40405273 72.44189453 C-128.39594826 71.04271286 -128.39594826 71.04271286 -128.38768005 69.61526489 C-127.66307764 64.72714327 -124.74791493 61.07412769 -120.95117188 57.99316406 C-118.37630196 56.68253208 -116.15405179 56.55486151 -113.28125 56.359375 C-112.29189453 56.28686523 -111.30253906 56.21435547 -110.28320312 56.13964844 C-109.52974609 56.09356445 -108.77628906 56.04748047 -108 56 C-108.01047363 54.94611084 -108.02094727 53.89222168 -108.03173828 52.80639648 C-108.06811544 48.87218665 -108.09096459 44.93799151 -108.10986328 41.00366211 C-108.11988065 39.30539443 -108.13349838 37.60714383 -108.15087891 35.90893555 C-108.17531579 33.45877858 -108.1865259 31.00885095 -108.1953125 28.55859375 C-108.20563507 27.80726669 -108.21595764 27.05593964 -108.22659302 26.28184509 C-108.22772612 20.87956578 -108.03295651 15.25077328 -104.25 11.0625 C-101.18415355 9.61473918 -99.35602584 9.45207741 -96 10 C-93.2553651 12.01158476 -91.32014726 13.62387199 -90.5262146 17.03652954 C-90.32521292 19.5212117 -90.2817138 21.9642401 -90.29296875 24.45703125 C-90.27784744 25.35999435 -90.26272614 26.26295746 -90.24714661 27.19328308 C-90.20428851 30.06660979 -90.19543351 32.93888558 -90.1875 35.8125 C-90.1643542 37.76500186 -90.13898869 39.71747876 -90.11132812 41.66992188 C-90.04432867 46.44718585 -90.02335104 51.22152728 -90 56 C-79.77 56.33 -69.54 56.66 -59 57 C-59.05800781 54.02613281 -59.11601562 51.05226563 -59.17578125 47.98828125 C-59.21479486 45.10232204 -59.24514345 42.2163924 -59.2746582 39.33032227 C-59.2997755 37.32725844 -59.33387595 35.32428602 -59.37719727 33.3215332 C-59.43797188 30.43938634 -59.46623732 27.55845279 -59.48828125 24.67578125 C-59.51408768 23.78288895 -59.5398941 22.88999664 -59.56648254 21.970047 C-59.56849755 17.4855353 -59.46102835 15.6032232 -56.65698242 11.93432617 C-54 10 -54 10 -51 9.375 C-46.89914686 10.2293444 -45.48759657 11.65951318 -43 15 C-41.99958368 20.03848853 -41.86500892 25.00272567 -41.90234375 30.12109375 C-41.90446617 31.23823509 -41.90446617 31.23823509 -41.90663147 32.37794495 C-41.91218011 34.73117273 -41.92472267 37.0843015 -41.9375 39.4375 C-41.94252165 41.04361841 -41.94708339 42.64973832 -41.95117188 44.25585938 C-41.96213265 48.17061043 -41.97936116 52.08528849 -42 56 C-40.97700806 56.0767395 -40.97700806 56.0767395 -39.93334961 56.1550293 C-39.03624268 56.23148682 -38.13913574 56.30794434 -37.21484375 56.38671875 C-36.32659912 56.45850342 -35.43835449 56.53028809 -34.52319336 56.60424805 C-29.97917575 57.31695753 -27.15058301 59.69071589 -24.1875 63.0625 C-22.12113126 66.43394373 -21.8613351 69.24438175 -21.80712891 73.10717773 C-21.79106598 74.14933945 -21.77500305 75.19150116 -21.75845337 76.26524353 C-21.71375611 81.05629735 -21.67289073 85.84721355 -21.64990234 90.63842773 C-21.63340578 93.15512378 -21.60620028 95.6717742 -21.56787109 98.18823242 C-21.51268363 101.83276478 -21.4911579 105.47619793 -21.4765625 109.12109375 C-21.44255844 110.78584999 -21.44255844 110.78584999 -21.40786743 112.48423767 C-21.43719221 123.49921468 -24.94366813 132.98809409 -32.609375 141.01953125 C-37.39307386 144.98249746 -43.65341185 149 -50 149 C-49.95359375 150.134375 -49.9071875 151.26875 -49.859375 152.4375 C-49.41483793 167.80383504 -49.41483793 167.80383504 -54 174 C-58.05649144 177.39868202 -60.3348193 177.19068847 -66 178 C-66 185.59 -66 193.18 -66 201 C-56.18456456 200.13633889 -56.18456456 200.13633889 -46.8125 197.9375 C-45.73802612 197.61422729 -45.73802612 197.61422729 -44.6418457 197.28442383 C-19.21932667 189.22444053 3.06740342 171.79384592 16.25 148.5625 C17.19092286 146.72052389 18.10677176 144.86557099 19 143 C19.51304687 141.94425781 20.02609375 140.88851562 20.5546875 139.80078125 C32.05417806 114.71358418 33.23461662 86.13950815 23.8125 60.1875 C15.65316537 38.86675663 1.41282201 20.28031552 -18 8 C-18.76570312 7.48953125 -19.53140625 6.9790625 -20.3203125 6.453125 C-42.96673909 -8.04656727 -71.64079395 -11.79649095 -97.82885742 -6.81542969 C-105.55474171 -5.07586016 -112.89227961 -2.48890714 -120 1 C-120.88316895 1.42539062 -120.88316895 1.42539062 -121.78417969 1.859375 C-130.79286924 6.24072633 -138.57991128 11.18475112 -146 18 C-146.49097168 18.44327637 -146.98194336 18.88655273 -147.48779297 19.34326172 C-168.15310857 38.17340816 -179.26805898 64.53542354 -180.87670898 92.24511719 C-181.95220056 119.3320131 -172.81956661 146.45010187 -154.375 166.4375 C-152.59808988 168.30661114 -150.80003562 170.15295884 -149 172 C-148.41863281 172.65484375 -147.83726562 173.3096875 -147.23828125 173.984375 C-136.16664334 186.14365492 -119.09170964 193.11783519 -103.96582031 198.55322266 C-103.22170898 198.82827637 -102.47759766 199.10333008 -101.7109375 199.38671875 C-101.04368652 199.62608154 -100.37643555 199.86544434 -99.68896484 200.11206055 C-98 201 -98 201 -96 204 C-95.39160845 207.99800164 -95.66748697 209.52201252 -98 212.875 C-101.74858219 215.53024572 -104.59611988 215.40281841 -109 215 C-137.70532428 208.72824848 -162.34913702 189.39704011 -178.30932617 165.10205078 C-192.059869 143.30843052 -199.55296131 117.89394176 -198 92 C-197.96422852 91.35047363 -197.92845703 90.70094727 -197.89160156 90.03173828 C-195.84777205 56.6665944 -181.46528353 27.15433155 -157.1875 4.25 C-112.97113482 -33.64974159 -45.75972062 -37.38727963 0 0 Z M-112 74 C-112.1018729 80.26206481 -112.17166281 86.52391392 -112.21972656 92.78662109 C-112.23977468 94.91463202 -112.26702054 97.04258832 -112.30175781 99.17041016 C-112.35057548 102.23874433 -112.37303726 105.30634673 -112.390625 108.375 C-112.41127014 109.31802979 -112.43191528 110.26105957 -112.45318604 111.23266602 C-112.45544557 117.96608848 -111.28061849 123.5496734 -106.51690674 128.55981445 C-102.61595429 131.96253883 -99.54831534 133.11485866 -94.47192383 133.17700195 C-93.55699661 133.18983719 -92.6420694 133.20267242 -91.69941711 133.21589661 C-90.71192978 133.22328354 -89.72444244 133.23067047 -88.70703125 133.23828125 C-87.68703537 133.246353 -86.66703949 133.25442474 -85.61613464 133.26274109 C-83.45496314 133.27657683 -81.29376984 133.28730126 -79.13256836 133.29516602 C-75.84250902 133.31234332 -72.55346389 133.35623069 -69.26367188 133.40039062 C-67.16146571 133.41052104 -65.05925101 133.41903605 -62.95703125 133.42578125 C-61.97966507 133.44328934 -61.00229889 133.46079742 -59.99531555 133.47883606 C-53.86762539 133.459574 -49.05774659 132.63219402 -44 129 C-37.8061099 122.58576606 -38.22449629 115.06266098 -38.1875 106.5625 C-38.16551121 105.2191238 -38.14157539 103.8757781 -38.11572266 102.5324707 C-38.0485607 98.6884108 -38.02336026 94.84458038 -38 91 C-37.97399365 89.09633543 -37.9468326 87.19268589 -37.91796875 85.2890625 C-37.84808449 79.64313844 -37.84808449 79.64313844 -38 74 C-39.87875362 72.12124638 -43.09937956 72.87219277 -45.59936523 72.87060547 C-46.28880219 72.86885315 -46.97823914 72.86710083 -47.68856812 72.86529541 C-49.97860191 72.86087686 -52.2685591 72.8638152 -54.55859375 72.8671875 C-56.14421097 72.86651438 -57.72982808 72.86554429 -59.31544495 72.86428833 C-62.6436562 72.86281129 -65.97184068 72.86496582 -69.30004883 72.86962891 C-73.57198695 72.87532157 -77.84386219 72.87205017 -82.115798 72.86605644 C-85.39195735 72.86244704 -88.66810175 72.86359125 -91.94426155 72.86618423 C-93.51957265 72.86685269 -95.0948851 72.8660279 -96.67019463 72.86370468 C-98.87057988 72.86117246 -101.07086264 72.86502702 -103.27124023 72.87060547 C-104.52509018 72.87140106 -105.77894012 72.87219666 -107.07078552 72.87301636 C-109.93525668 72.7976049 -109.93525668 72.7976049 -112 74 Z M-83 150 C-83.020625 151.44375 -83.04125 152.8875 -83.0625 154.375 C-83.07410156 155.18710938 -83.08570312 155.99921875 -83.09765625 156.8359375 C-83.14466334 159.04937142 -83.14466334 159.04937142 -82 161 C-77.05 161 -72.1 161 -67 161 C-67 157.37 -67 153.74 -67 150 C-72.28 150 -77.56 150 -83 150 Z " fill="#67B845" transform="translate(204,32)"/>
<path d="M0 0 C-0.2596886 5.59412523 -3.91967845 8.76891028 -7.5 12.6875 C-8.69953509 14.02328801 -9.89752824 15.36046278 -11.09375 16.69921875 C-11.62677734 17.28533936 -12.15980469 17.87145996 -12.70898438 18.4753418 C-14.09191941 19.98659447 -14.09191941 19.98659447 -15 22 C-12.03 22.33 -9.06 22.66 -6 23 C-6.47677302 27.56708422 -6.47677302 27.56708422 -8.76806641 29.46289062 C-9.53812012 29.85669922 -10.30817383 30.25050781 -11.1015625 30.65625 C-11.97369385 31.11555908 -12.8458252 31.57486816 -13.74438477 32.0480957 C-14.69498779 32.52722412 -15.64559082 33.00635254 -16.625 33.5 C-18.62763613 34.54301547 -20.62889335 35.58868194 -22.62890625 36.63671875 C-23.67191895 37.17989746 -24.71493164 37.72307617 -25.78955078 38.28271484 C-29.03913035 40.02093102 -32.22313106 41.84352275 -35.40234375 43.70703125 C-36.43343262 44.30902344 -37.46452148 44.91101563 -38.52685547 45.53125 C-40.52261815 46.70232001 -42.51274487 47.88305808 -44.49658203 49.07421875 C-45.40649902 49.60273438 -46.31641602 50.13125 -47.25390625 50.67578125 C-48.05127197 51.14927002 -48.8486377 51.62275879 -49.67016602 52.1105957 C-52.5163319 53.19710752 -54.11804615 52.84398936 -57 52 C-55.62018107 47.86788268 -53.73799638 45.3330268 -50.75 42.1875 C-46.83938974 37.97364372 -43.36437907 33.65837102 -40 29 C-42.97 29 -45.94 29 -49 29 C-49.33 27.68 -49.66 26.36 -50 25 C-41.68479574 20.45711353 -41.68479574 20.45711353 -37.54736328 18.20605469 C-32.13253791 15.25971466 -26.72705297 12.29812612 -21.3359375 9.30859375 C-19.18232345 8.12233813 -17.02867843 6.93613873 -14.875 5.75 C-13.85083984 5.17741455 -12.82667969 4.6048291 -11.77148438 4.01489258 C-10.81306641 3.48919678 -9.85464844 2.96350098 -8.8671875 2.421875 C-8.02269043 1.95362305 -7.17819336 1.48537109 -6.30810547 1.00292969 C-4 0 -4 0 0 0 Z " fill="#67B846" transform="translate(158,108)"/>
<path d="M0 0 C2.7446349 2.01158476 4.67985274 3.62387199 5.4737854 7.03652954 C5.67478708 9.5212117 5.7182862 11.9642401 5.70703125 14.45703125 C5.72215256 15.35999435 5.73727386 16.26295746 5.75285339 17.19328308 C5.79571149 20.06660979 5.80456649 22.93888558 5.8125 25.8125 C5.8356458 27.76500186 5.86101131 29.71747876 5.88867188 31.66992188 C5.95567133 36.44718585 5.97664896 41.22152728 6 46 C16.23 46.33 26.46 46.66 37 47 C36.94199219 44.02613281 36.88398438 41.05226562 36.82421875 37.98828125 C36.78520514 35.10232204 36.75485655 32.2163924 36.7253418 29.33032227 C36.7002245 27.32725844 36.66612405 25.32428602 36.62280273 23.3215332 C36.56202812 20.43938634 36.53376268 17.55845279 36.51171875 14.67578125 C36.48591232 13.78288895 36.4601059 12.88999664 36.43351746 11.970047 C36.43150245 7.4855353 36.53897165 5.6032232 39.34301758 1.93432617 C42 0 42 0 45 -0.625 C49.10085314 0.2293444 50.51240343 1.65951318 53 5 C54.00041632 10.03848853 54.13499108 15.00272567 54.09765625 20.12109375 C54.0962413 20.86585464 54.09482635 21.61061554 54.09336853 22.37794495 C54.08781989 24.73117273 54.07527733 27.0843015 54.0625 29.4375 C54.05747835 31.04361841 54.05291661 32.64973832 54.04882812 34.25585938 C54.03786735 38.17061043 54.02063884 42.08528849 54 46 C54.68199463 46.05115967 55.36398926 46.10231934 56.06665039 46.1550293 C56.96375732 46.23148682 57.86086426 46.30794434 58.78515625 46.38671875 C59.67340088 46.45850342 60.56164551 46.53028809 61.47680664 46.60424805 C66.02082425 47.31695753 68.84941699 49.69071589 71.8125 53.0625 C73.87886874 56.43394373 74.1386649 59.24438175 74.19287109 63.10717773 C74.20893402 64.14933945 74.22499695 65.19150116 74.24154663 66.26524353 C74.28624389 71.05629735 74.32710927 75.84721355 74.35009766 80.63842773 C74.36659422 83.15512378 74.39379972 85.6717742 74.43212891 88.18823242 C74.48731637 91.83276478 74.5088421 95.47619793 74.5234375 99.12109375 C74.54610687 100.23093124 74.56877625 101.34076874 74.59213257 102.48423767 C74.56280779 113.49921468 71.05633187 122.98809409 63.390625 131.01953125 C58.60692614 134.98249746 52.34658815 139 46 139 C46 138.34 46 137.68 46 137 C52.5 134 52.5 134 57 134 C57.33 132.68 57.66 131.36 58 130 C59.32 130 60.64 130 62 130 C62.268125 129.195625 62.53625 128.39125 62.8125 127.5625 C63.204375 126.716875 63.59625 125.87125 64 125 C64.99 124.67 65.98 124.34 67 124 C66.95875 123.05125 66.9175 122.1025 66.875 121.125 C67 118 67 118 69 116 C69.6425235 113.93125966 69.6425235 113.93125966 70 112 C70.66 112 71.32 112 72 112 C72.05089094 105.025748 72.08581364 98.05154426 72.10986328 91.07714844 C72.1198939 88.70668752 72.1335216 86.3362389 72.15087891 83.96582031 C72.17525643 80.55009927 72.18651279 77.13454245 72.1953125 73.71875 C72.20563507 72.66635132 72.21595764 71.61395264 72.22659302 70.52966309 C72.22747716 64.67427456 71.85886271 59.57577818 70 54 C68.02965198 52.4251892 68.02965198 52.4251892 66 52 C66 51.34 66 50.68 66 50 C64.87851563 50.14308594 64.87851563 50.14308594 63.734375 50.2890625 C62.74953125 50.39992187 61.7646875 50.51078125 60.75 50.625 C59.77546875 50.74101563 58.8009375 50.85703125 57.796875 50.9765625 C54.76342562 51.00198247 53.41092307 50.824194 51 49 C48.38987384 44.29678245 48.74432635 39.54539928 48.8046875 34.32421875 C48.8075174 33.3990596 48.81034729 32.47390045 48.81326294 31.52070618 C48.82442608 28.57617058 48.84952363 25.63194312 48.875 22.6875 C48.88503479 20.68685336 48.89415977 18.68620194 48.90234375 16.68554688 C48.92435278 11.7902465 48.95885609 6.89517543 49 2 C46.36 2.33 43.72 2.66 41 3 C39.67872827 6.96381519 39.78480069 10.80159005 39.71875 14.9375 C39.70034058 15.81398193 39.68193115 16.69046387 39.66296387 17.59350586 C39.60421787 20.39560246 39.55139522 23.1977595 39.5 26 C39.43236606 29.68762974 39.35870004 33.37506483 39.28125 37.0625 C39.26767456 37.91255615 39.25409912 38.7626123 39.2401123 39.63842773 C39.16928941 42.98911868 39.06644601 45.80066198 38 49 C33.83741853 49.04969106 29.67499739 49.08585642 25.51220703 49.10986328 C24.09811391 49.11987856 22.68404127 49.13349474 21.27001953 49.15087891 C19.22944054 49.17532559 17.18913697 49.18652784 15.1484375 49.1953125 C13.92302246 49.20578613 12.69760742 49.21625977 11.43505859 49.22705078 C8 49 8 49 2 47 C1.67 33.47 1.34 19.94 1 6 C-4.5 3.5 -4.5 3.5 -8 5 C-9.66710346 6.49985609 -9.66710346 6.49985609 -11 8 C-10.67842796 5.02545866 -10.37860258 3.40664722 -8.3125 1.1875 C-5.21737291 -0.40188959 -3.43979993 -0.56159999 0 0 Z " fill="#70A359" transform="translate(108,42)"/>
<path d="M0 0 C-0.5625 1.9375 -0.5625 1.9375 -2 4 C-5.06175236 4.65608979 -7.87221384 5 -11 5 C-11.33 5.99 -11.66 6.98 -12 8 C-13.5778125 8.2165625 -13.5778125 8.2165625 -15.1875 8.4375 C-25.0291823 9.88955149 -32.74099843 12.9349384 -40.8828125 18.671875 C-43.84858043 20.53231983 -46.5921431 21.27492406 -50 22 C-50 22.66 -50 23.32 -50 24 C-51.32 24 -52.64 24 -54 24 C-54 24.66 -54 25.32 -54 26 C-54.66 26 -55.32 26 -56 26 C-56 26.66 -56 27.32 -56 28 C-56.99 28.33 -57.98 28.66 -59 29 C-59.66 30.010625 -60.32 31.02125 -61 32.0625 C-61.66 33.031875 -62.32 34.00125 -63 35 C-63.99 35 -64.98 35 -66 35 C-66 35.99 -66 36.98 -66 38 C-67.875 40.1875 -67.875 40.1875 -70 42 C-70.66 42 -71.32 42 -72 42 C-72 42.99 -72 43.98 -72 45 C-72.74894531 45.42925781 -73.49789062 45.85851563 -74.26953125 46.30078125 C-77.71008847 48.44190055 -78.79834508 50.63419063 -80.6875 54.1875 C-81.73947335 56.15382712 -82.83107611 58.10086672 -84 60 C-84.66 60 -85.32 60 -86 60 C-86.03738281 60.73605469 -86.07476562 61.47210938 -86.11328125 62.23046875 C-86.56052497 68.86896868 -87.15992969 73.15992969 -92 78 C-94.10232344 80.8684413 -94.10232344 80.8684413 -95 84 C-95.66 84 -96.32 84 -97 84 C-90.59878118 56.26138511 -69.78246554 31.49198758 -46.19921875 16.4921875 C-32.93753569 8.40664476 -15.90039673 -0.45429705 0 0 Z " fill="#74AE57" transform="translate(109,8)"/>
<path d="M0 0 C0.66 0.33 1.32 0.66 2 1 C1.01 2.65 0.02 4.3 -1 6 C-0.01 6.33 0.98 6.66 2 7 C2 9.31 2 11.62 2 14 C1.01 14.33 0.02 14.66 -1 15 C-1.1546875 15.86625 -1.1546875 15.86625 -1.3125 16.75 C-2.37935121 20.24151305 -5.24941384 21.70784487 -8 24 C-8.94436349 26.16531168 -8.94436349 26.16531168 -9 28 C-6.08910303 26.61070826 -3.40760947 25.32368988 -0.875 23.3125 C1 22 1 22 5 22 C5.24105469 21.39285156 5.48210937 20.78570312 5.73046875 20.16015625 C7.27409021 17.53362497 8.61869687 16.80930227 11.3125 15.4375 C13.862464 14.1136369 16.27638259 12.82002994 18.6875 11.25 C21.42986255 9.76764187 23.94317876 9.48631247 27 9 C27.33 8.34 27.66 7.68 28 7 C28.66 7 29.32 7 30 7 C30 6.34 30 5.68 30 5 C29.401875 5.226875 28.80375 5.45375 28.1875 5.6875 C27.465625 5.790625 26.74375 5.89375 26 6 C25.01 5.01 24.02 4.02 23 3 C26.96 3 30.92 3 35 3 C34 8 34 8 32.23193359 9.46289062 C31.46187988 9.85669922 30.69182617 10.25050781 29.8984375 10.65625 C29.02630615 11.11555908 28.1541748 11.57486816 27.25561523 12.0480957 C26.30501221 12.52722412 25.35440918 13.00635254 24.375 13.5 C22.37236387 14.54301547 20.37110665 15.58868194 18.37109375 16.63671875 C17.32808105 17.17989746 16.28506836 17.72307617 15.21044922 18.28271484 C11.96086965 20.02093102 8.77686894 21.84352275 5.59765625 23.70703125 C4.56656738 24.30902344 3.53547852 24.91101563 2.47314453 25.53125 C0.47738185 26.70232001 -1.51274487 27.88305808 -3.49658203 29.07421875 C-4.40649902 29.60273438 -5.31641602 30.13125 -6.25390625 30.67578125 C-7.05127197 31.14927002 -7.8486377 31.62275879 -8.67016602 32.1105957 C-11.5163319 33.19710752 -13.11804615 32.84398936 -16 32 C-14.62018107 27.86788268 -12.73799638 25.3330268 -9.75 22.1875 C-5.83938974 17.97364372 -2.36437907 13.65837102 1 9 C-1.97 9 -4.94 9 -8 9 C-8.33 7.68 -8.66 6.36 -9 5 C-7.54735962 4.1361871 -6.0876837 3.28419546 -4.625 2.4375 C-3.81289062 1.96183594 -3.00078125 1.48617187 -2.1640625 0.99609375 C-1.44992188 0.66738281 -0.73578125 0.33867187 0 0 Z " fill="#6C9C56" transform="translate(117,128)"/>
<path d="M0 0 C5.65998046 -0.04934926 11.31983636 -0.08569529 16.97998047 -0.10986328 C18.90643494 -0.11993582 20.83287408 -0.13359443 22.75927734 -0.15087891 C25.52445252 -0.17507241 28.289426 -0.18647036 31.0546875 -0.1953125 C31.9193161 -0.20563507 32.7839447 -0.21595764 33.67477417 -0.22659302 C35.78453521 -0.22699106 37.89380718 -0.12265243 40 0 C40.66 0.66 41.32 1.32 42 2 C44.42273482 2.57387768 44.42273482 2.57387768 47.1875 2.9375 C51.92321574 3.7133381 55.66127843 5.01141928 60 7 C60.99 7 61.98 7 63 7 C64.66666667 8.66666667 66.33333333 10.33333333 68 12 C70.27689756 13.4816402 72.59487545 14.72669877 75 16 C74.67 16.66 74.34 17.32 74 18 C69.99471522 16.49054566 66.28731513 14.61420909 62.5 12.625 C48.0355175 5.2464887 33.19904086 2.60782776 17.0625 2.625 C15.80155518 2.62371094 14.54061035 2.62242188 13.24145508 2.62109375 C2.45848691 2.74165803 -7.5888635 4.28510527 -18 7 C-18 6.34 -18 5.68 -18 5 C-15.93918639 4.49309416 -13.87626474 3.99475381 -11.8125 3.5 C-10.66394531 3.2215625 -9.51539062 2.943125 -8.33203125 2.65625 C-5.43181171 2.08504615 -2.93903615 1.86716221 0 2 C0 1.34 0 0.68 0 0 Z " fill="#75A458" transform="translate(112,21)"/>
<path d="M0 0 C-3.73781156 1.24593719 -5.33011921 0.20084054 -8.859375 -1.23046875 C-11.89783638 -2.32276235 -14.79574402 -2.66622334 -18 -3 C-18 -3.66 -18 -4.32 -18 -5 C-19.33256883 -5.3363766 -20.66615542 -5.66871834 -22 -6 C-22.95390625 -6.2371875 -23.9078125 -6.474375 -24.890625 -6.71875 C-40.22706264 -10.28536341 -58.41397404 -12.02129119 -74 -9 C-74 -9.66 -74 -10.32 -74 -11 C-74.66 -11 -75.32 -11 -76 -11 C-76 -11.66 -76 -12.32 -76 -13 C-50.12652337 -16.73929033 -22.91086304 -13.00968605 0 0 Z " fill="#73A459" transform="translate(186,20)"/>
<path d="M0 0 C0.33 0 0.66 0 1 0 C1.14695312 0.8971875 1.29390625 1.794375 1.4453125 2.71875 C6.30419427 29.74977042 19.51749687 49.02500057 39 68 C40.33554633 69.33111666 41.66982996 70.66351086 43 72 C40.61435923 71.42415568 38.33317216 70.77772405 36 70 C36 69.01 36 68.02 36 67 C35.443125 66.773125 34.88625 66.54625 34.3125 66.3125 C31.33840412 64.62449964 29.27991135 62.53323483 27 60 C27 59.34 27 58.68 27 58 C26.443125 57.7525 25.88625 57.505 25.3125 57.25 C20.35843139 54.57212508 17.87026177 52.25991234 15.8828125 46.92578125 C14.8392239 44.64928045 13.49042141 42.89928236 11.9375 40.9375 C9.40396112 37.69606056 8.210804 34.95529307 7 31 C6.17989044 29.63778412 5.34491721 28.28446946 4.5 26.9375 C-0.14877649 18.80556945 -0.31065626 9.16435953 0 0 Z " fill="#65A54C" transform="translate(23,143)"/>
<path d="M0 0 C0.66 0 1.32 0 2 0 C3.66666667 1.66666667 5.33333333 3.33333333 7 5 C7.804375 5.433125 8.60875 5.86625 9.4375 6.3125 C12.01844769 8.01214848 13.10573306 9.33458768 14.875 11.8125 C18.74136557 17.22341882 23.05139724 21.05648849 29 24 C30 25 31 26 32 27 C32.99 27.33 33.98 27.66 35 28 C35 28.66 35 29.32 35 30 C36.32 30 37.64 30 39 30 C39 30.66 39 31.32 39 32 C39.680625 32.103125 40.36125 32.20625 41.0625 32.3125 C44.62915989 33.14725019 47.66222194 34.49472754 51 36 C50.67 36.99 50.34 37.98 50 39 C30.4081703 33.84425534 10.7463562 17.83595805 0 1 C0 0.67 0 0.34 0 0 Z M12 7 C12.66 7 13.32 7 14 7 C13.67 7.66 13.34 8.32 13 9 C12.67 8.34 12.34 7.68 12 7 Z " fill="#6AA54B" transform="translate(31,203)"/>
<path d="M0 0 C0.66 0 1.32 0 2 0 C1.68282813 2.96027076 1.01571727 3.98428273 -1.125 6.125 C-7.15054045 10.05470029 -13.26905155 10.29140198 -20.22265625 10.23046875 C-21.51821693 10.22978142 -21.51821693 10.22978142 -22.83995056 10.2290802 C-24.65609114 10.22607411 -26.47222952 10.21823743 -28.28833008 10.20581055 C-31.05754803 10.18753268 -33.82643105 10.18530135 -36.59570312 10.18554688 C-38.36719037 10.18063139 -40.13867537 10.17480294 -41.91015625 10.16796875 C-43.14319237 10.16629951 -43.14319237 10.16629951 -44.40113831 10.16459656 C-48.70880341 10.12926245 -52.75774472 9.8539024 -57 9 C-57 8.34 -57 7.68 -57 7 C-56.42894531 6.99635437 -55.85789062 6.99270874 -55.26953125 6.98895264 C-49.29890984 6.94697912 -43.32904655 6.87753048 -37.35888672 6.79248047 C-35.13402914 6.76434228 -32.90907293 6.74309235 -30.68408203 6.72900391 C-27.47637697 6.70747568 -24.26984897 6.66077322 -21.0625 6.609375 C-20.07572266 6.60814636 -19.08894531 6.60691772 -18.07226562 6.60565186 C-10.95424548 6.45639419 -5.15966037 5.15966037 0 0 Z " fill="#6A9E52" transform="translate(162,158)"/>
<path d="M0 0 C0 1.65 0 3.3 0 5 C-0.51949219 5.25394531 -1.03898437 5.50789062 -1.57421875 5.76953125 C-4.69696334 7.31070095 -7.73543733 8.83387926 -10.6875 10.6875 C-13.2049637 12.11633075 -15.16484271 12.47252888 -18 13 C-19.25562806 13.48569349 -20.50516507 13.98727591 -21.75 14.5 C-25.3986961 15.91438219 -28.73686268 16.42860008 -32.62109375 16.74609375 C-36.11878699 17.11941076 -39.50757149 17.91252807 -42.93359375 18.6953125 C-45 19 -45 19 -47 18 C-47 17.01 -47 16.02 -47 15 C-46.40316406 14.98582031 -45.80632812 14.97164062 -45.19140625 14.95703125 C-29.81118222 14.11146173 -16.37176502 8.21704342 -3 1 C-1 0 -1 0 0 0 Z " fill="#69B24D" transform="translate(185,218)"/>
<path d="M0 0 C0.495 1.485 0.495 1.485 1 3 C0.43192627 3.25056152 -0.13614746 3.50112305 -0.72143555 3.75927734 C-18.97895971 11.89792908 -32.21600866 21.65297119 -46 36 C-46.66 36.66 -47.32 37.32 -48 38 C-46.94845361 31.69072165 -46.94845361 31.69072165 -45 29 C-41.875 27.75 -41.875 27.75 -39 27 C-39 26.01 -39 25.02 -39 24 C-38.34 24 -37.68 24 -37 24 C-36.690625 22.824375 -36.690625 22.824375 -36.375 21.625 C-35 19 -35 19 -31.9375 17.875 C-30.968125 17.58625 -29.99875 17.2975 -29 17 C-28.67 16.01 -28.34 15.02 -28 14 C-25.9375 13.3125 -25.9375 13.3125 -24 13 C-24 12.34 -24 11.68 -24 11 C-23.31292969 10.73445313 -22.62585938 10.46890625 -21.91796875 10.1953125 C-21.01691406 9.84210937 -20.11585937 9.48890625 -19.1875 9.125 C-18.29417969 8.77695312 -17.40085937 8.42890625 -16.48046875 8.0703125 C-13.82288409 7.01167845 -13.82288409 7.01167845 -11 5 C-10.01 5 -9.02 5 -8 5 C-8 4.01 -8 3.02 -8 2 C-5.36 1.34 -2.72 0.68 0 0 Z " fill="#71A654" transform="translate(92,26)"/>
<path d="M0 0 C0.66 0 1.32 0 2 0 C4.59828992 7.79486977 2.94396992 16.43444459 1.625 24.375 C1.49899414 25.13562744 1.37298828 25.89625488 1.24316406 26.67993164 C0.49180299 30.9365514 -0.51257422 34.92574678 -2 39 C-2.66 39 -3.32 39 -4 39 C-4.103125 39.886875 -4.20625 40.77375 -4.3125 41.6875 C-5.01190702 45.0573702 -6.08742511 47.17271538 -8 50 C-9 48 -9 48 -8.109375 45.15625 C-7.66078125 43.9496875 -7.2121875 42.743125 -6.75 41.5 C-2.02854864 28.08872067 -0.60470145 14.13750296 0 0 Z " fill="#6FA756" transform="translate(235,121)"/>
<path d="M0 0 C-0.32433508 5.35152885 -3.49704824 8.28280043 -7 12 C-7 9.37886292 -6.68707555 7.49064888 -6 5 C-9.16882357 6.5089636 -12.06013017 8.04221906 -14.9375 10.0625 C-18 12 -18 12 -21.3125 12.9375 C-25.26830213 14.07730739 -28.29391064 15.75279402 -31.7890625 17.87890625 C-34.19134382 19.09702417 -36.34926247 19.58611291 -39 20 C-35.27810872 16.83830367 -31.38348357 14.39800053 -27.08984375 12.109375 C-26.44052383 11.75989807 -25.79120392 11.41042114 -25.12220764 11.050354 C-23.7579384 10.31835561 -22.39222433 9.58904424 -21.02514648 8.86230469 C-18.93515647 7.74875136 -16.8532755 6.62097873 -14.77148438 5.4921875 C-13.44057216 4.78037427 -12.1092071 4.06940698 -10.77734375 3.359375 C-10.15746078 3.02194275 -9.53757782 2.6845105 -8.89891052 2.33685303 C-5.56907404 0.58455223 -3.86690485 0 0 0 Z " fill="#7EA862" transform="translate(158,108)"/>
<path d="M0 0 C0.66 0 1.32 0 2 0 C2.48539869 1.83169318 2.96297186 3.66546059 3.4375 5.5 C3.70433594 6.5209375 3.97117188 7.541875 4.24609375 8.59375 C8.13944582 26.18443913 7.08338607 45.54838571 3 63 C2.67 63 2.34 63 2 63 C1.91535713 59.10642798 2.03786497 55.37643772 2.4921875 51.5078125 C3.10209433 45.5847102 3.1915978 39.70090963 3.1875 33.75 C3.18737915 32.10281982 3.18737915 32.10281982 3.18725586 30.42236328 C3.13112361 22.4232227 2.46879855 14.86932944 1 7 C0.65842381 4.66785908 0.32314102 2.33476668 0 0 Z " fill="#6A9A55" transform="translate(245,96)"/>
<path d="M0 0 C0.66 0 1.32 0 2 0 C-1.8540407 18.58771712 -12.23908258 34.4458647 -24 49 C-24.33 47.68 -24.66 46.36 -25 45 C-24.01 44.4121875 -24.01 44.4121875 -23 43.8125 C-22.34 43.214375 -21.68 42.61625 -21 42 C-21.020625 41.195625 -21.04125 40.39125 -21.0625 39.5625 C-21.041875 38.716875 -21.02125 37.87125 -21 37 C-18.77639103 34.89342308 -16.73477132 33.36738566 -14 32 C-13.06154746 30.17712703 -12.19564908 28.31635447 -11.375 26.4375 C-10.92898437 25.42558594 -10.48296875 24.41367188 -10.0234375 23.37109375 C-9.68570313 22.58863281 -9.34796875 21.80617187 -9 21 C-8.34 21 -7.68 21 -7 21 C-6.81824219 20.10796875 -6.63648438 19.2159375 -6.44921875 18.296875 C-6.19785156 17.12640625 -5.94648438 15.9559375 -5.6875 14.75 C-5.44386719 13.58984375 -5.20023438 12.4296875 -4.94921875 11.234375 C-4.032698 8.11141539 -3.05403104 6.45590668 -1 4 C-0.29485154 1.85266073 -0.29485154 1.85266073 0 0 Z " fill="#78A460" transform="translate(245,160)"/>
<path d="M0 0 C0.33 0.66 0.66 1.32 1 2 C-0.02057067 4.77054919 -1.1044284 7.46921346 -2.25 10.1875 C-7.38238504 22.89553882 -9.38907832 35.32799423 -10 49 C-10.66 48.67 -11.32 48.34 -12 48 C-12.82232873 36.55592517 -10.62168169 24.86504506 -7 14 C-6.69642578 12.96746094 -6.69642578 12.96746094 -6.38671875 11.9140625 C-4.9375623 7.16989668 -3.45841237 3.69692357 0 0 Z " fill="#6DA158" transform="translate(33,79)"/>
<path d="M0 0 C0.74185547 -0.020625 1.48371094 -0.04125 2.24804688 -0.0625 C4.40234375 -0.078125 4.40234375 -0.078125 8.0625 0.25 C10.41369399 3.77679099 10.27693452 5.27879485 10.1875 9.4375 C10.16945312 10.52417969 10.15140625 11.61085937 10.1328125 12.73046875 C10.10960937 13.56191406 10.08640625 14.39335937 10.0625 15.25 C7.64575776 15.27705308 5.2293206 15.29686438 2.8125 15.3125 C1.78962891 15.32506836 1.78962891 15.32506836 0.74609375 15.33789062 C-2.63092554 15.35428392 -5.71041639 15.30628768 -8.9375 14.25 C-8.9375 13.59 -8.9375 12.93 -8.9375 12.25 C-3.3275 12.58 2.2825 12.91 8.0625 13.25 C8.0625 9.62 8.0625 5.99 8.0625 2.25 C2.7825 2.25 -2.4975 2.25 -7.9375 2.25 C-7.9375 4.23 -7.9375 6.21 -7.9375 8.25 C-8.2675 8.25 -8.5975 8.25 -8.9375 8.25 C-8.97991723 5.91705225 -8.97842937 3.58297433 -8.9375 1.25 C-6.88735387 -0.80014613 -2.80865412 0.01942025 0 0 Z " fill="#70A059" transform="translate(128.9375,179.75)"/>
<path d="M0 0 C2.97 0 5.94 0 9 0 C9 0.99 9 1.98 9 3 C11.31 3 13.62 3 16 3 C17.18849389 5.37698779 17.17031452 6.96100828 17.24609375 9.61328125 C17.29540039 10.9909668 17.29540039 10.9909668 17.34570312 12.39648438 C17.40652873 14.32866803 17.46386411 16.26096495 17.51757812 18.19335938 C17.73735234 24.81634751 17.73735234 24.81634751 20 31 C16.45738084 27.57165887 14.92643757 25.79344778 14.68359375 20.8671875 C14.62075195 19.65869141 14.62075195 19.65869141 14.55664062 18.42578125 C14.51732422 17.58402344 14.47800781 16.74226563 14.4375 15.875 C14.37272461 14.60076172 14.37272461 14.60076172 14.30664062 13.30078125 C14.20045764 11.20071777 14.09971503 9.10038052 14 7 C13.32453125 6.74605469 12.6490625 6.49210938 11.953125 6.23046875 C11.06109375 5.88628906 10.1690625 5.54210937 9.25 5.1875 C8.36828125 4.85105469 7.4865625 4.51460937 6.578125 4.16796875 C4.06960192 3.03153178 2.12720995 1.73457073 0 0 Z " fill="#74A45C" transform="translate(90,175)"/>
<path d="M0 0 C10.56 0 21.12 0 32 0 C31.67 0.66 31.34 1.32 31 2 C30.22624023 2.0093457 29.45248047 2.01869141 28.65527344 2.02832031 C12.67758339 2.26976096 -2.47006355 3.11299612 -18 7 C-18 6.34 -18 5.68 -18 5 C-15.93918639 4.49309416 -13.87626474 3.99475381 -11.8125 3.5 C-10.66394531 3.2215625 -9.51539062 2.943125 -8.33203125 2.65625 C-5.43181171 2.08504615 -2.93903615 1.86716221 0 2 C0 1.34 0 0.68 0 0 Z " fill="#7FA967" transform="translate(112,21)"/>
<path d="M0 0 C0.33 0 0.66 0 1 0 C1.00364563 0.54599854 1.00729126 1.09199707 1.01104736 1.65454102 C1.05303651 7.36565886 1.12249548 13.0759853 1.20751953 18.78662109 C1.23564943 20.91447005 1.25690346 23.04242194 1.27099609 25.17041016 C1.29253608 28.2391398 1.33924371 31.30664211 1.390625 34.375 C1.39246796 35.78954468 1.39246796 35.78954468 1.39434814 37.23266602 C1.5267985 43.28019482 2.53372802 47.95794191 6 53 C8.28190242 55.11890939 10.23346539 56.61673269 13 58 C13 58.99 13 59.98 13 61 C9.83987387 60.66141506 9.04567887 60.05398412 6.9375 57.5625 C6.298125 56.716875 5.65875 55.87125 5 55 C4.01 54.34 3.02 53.68 2 53 C1.505 51.515 1.505 51.515 1 50 C0.34 49.67 -0.32 49.34 -1 49 C-0.67 32.83 -0.34 16.66 0 0 Z " fill="#6D9F56" transform="translate(91,106)"/>
<path d="M0 0 C0 6 0 6 -1 8 C-1.33 8.33 -1.66 8.66 -2 9 C-2.09365006 10.7492872 -2.11744438 12.50236254 -2.11352539 14.25415039 C-2.11344986 15.37523697 -2.11337433 16.49632355 -2.11329651 17.65138245 C-2.10813522 18.8711528 -2.10297394 20.09092316 -2.09765625 21.34765625 C-2.0962413 22.58921982 -2.09482635 23.83078339 -2.09336853 25.10997009 C-2.08870591 28.41605491 -2.07971497 31.72207146 -2.06866455 35.02813721 C-2.05844827 38.3996115 -2.05387045 41.77109283 -2.04882812 45.14257812 C-2.03777395 51.76173775 -2.02101736 58.38086493 -2 65 C-3.92104611 61.75336019 -4.25652834 59.32683994 -4.2746582 55.57641602 C-4.28419022 54.49171524 -4.29372223 53.40701447 -4.30354309 52.28944397 C-4.30263168 51.12271652 -4.30172028 49.95598907 -4.30078125 48.75390625 C-4.30506638 47.55064194 -4.3093515 46.34737762 -4.31376648 45.10765076 C-4.31950898 42.56322865 -4.32001064 40.01879013 -4.31567383 37.47436523 C-4.31251495 33.58093261 -4.33597157 29.68826049 -4.36132812 25.79492188 C-4.36360121 23.32291763 -4.36430457 20.85091133 -4.36328125 18.37890625 C-4.37709587 16.63185143 -4.37709587 16.63185143 -4.39118958 14.84950256 C-4.38496078 13.76164963 -4.37873199 12.67379669 -4.37231445 11.55297852 C-4.37294388 10.5990773 -4.3735733 9.64517609 -4.3742218 8.66236877 C-3.88642354 5.19197007 -2.49382034 2.49382034 0 0 Z " fill="#79A75F" transform="translate(80,93)"/>
<path d="M0 0 C0.66 0.33 1.32 0.66 2 1 C-0.76045194 3.42585171 -3.28460426 5.2241226 -6.6875 6.5625 C-10.21742199 7.73847355 -10.21742199 7.73847355 -12 11 C-12.66 11 -13.32 11 -14 11 C-14 11.66 -14 12.32 -14 13 C-15.32 13 -16.64 13 -18 13 C-18 13.66 -18 14.32 -18 15 C-18.66 15 -19.32 15 -20 15 C-20 15.66 -20 16.32 -20 17 C-20.99 17.33 -21.98 17.66 -23 18 C-23.598125 18.99 -24.19625 19.98 -24.8125 21 C-27 24 -27 24 -30.25 24.875 C-31.1575 24.91625 -32.065 24.9575 -33 25 C-25.93500743 15.7145812 -16.31734954 9.12046612 -6.3125 3.3125 C-5.71244141 2.96131104 -5.11238281 2.61012207 -4.49414062 2.24829102 C-3.03236618 1.4303633 -1.51919805 0.70556897 0 0 Z " fill="#7DAB64" transform="translate(73,19)"/>
<path d="M0 0 C2.77365565 2.6763344 5.16963895 5.43373546 7.5 8.5 C12.50524041 14.84122564 18.22480637 20.37331135 24 26 C25.33554266 27.33112034 26.66983748 28.66350337 28 30 C25.61435923 29.42415568 23.33317216 28.77772405 21 28 C21 27.01 21 26.02 21 25 C20.443125 24.773125 19.88625 24.54625 19.3125 24.3125 C16.33840412 22.62449964 14.27991135 20.53323483 12 18 C12 17.34 12 16.68 12 16 C11.443125 15.7525 10.88625 15.505 10.3125 15.25 C4.60314329 12.16386124 2.13597067 9.18307299 0 3 C0 2.01 0 1.02 0 0 Z " fill="#689C51" transform="translate(38,185)"/>
<path d="M0 0 C3.96 0 7.92 0 12 0 C11 5 11 5 9.0625 6.6875 C6.25341384 7.89139407 4.04808399 8.3848966 1.0625 8.875 C-2.51462605 9.49064781 -4.63566359 10.15620787 -7.3125 12.625 C-10 15 -10 15 -12.875 15.3125 C-13.926875 15.1578125 -13.926875 15.1578125 -15 15 C-12.5720406 12.5720406 -10.07878042 11.50920609 -7 10 C-6.175 9.46375 -5.35 8.9275 -4.5 8.375 C-1.65974302 6.81285866 0.82418431 6.5052434 4 6 C4.33 5.34 4.66 4.68 5 4 C5.66 4 6.32 4 7 4 C7 3.34 7 2.68 7 2 C6.401875 2.226875 5.80375 2.45375 5.1875 2.6875 C4.1046875 2.8421875 4.1046875 2.8421875 3 3 C2.01 2.01 1.02 1.02 0 0 Z " fill="#6CAC4F" transform="translate(140,131)"/>
<path d="M0 0 C0.66 0 1.32 0 2 0 C2 0.66 2 1.32 2 2 C2.66 2 3.32 2 4 2 C8.1952076 11.95142267 8.76366537 21.36494144 9 32 C8.34 32 7.68 32 7 32 C6.82984375 30.83984375 6.6596875 29.6796875 6.484375 28.484375 C5.20204004 20.10202004 3.7317226 12.17543174 0.76953125 4.1875 C0 2 0 2 0 0 Z " fill="#6EA454" transform="translate(227,88)"/>
<path d="M0 0 C1.29585916 0.42492126 2.5866044 0.86545882 3.875 1.3125 C4.95394531 1.67794922 4.95394531 1.67794922 6.0546875 2.05078125 C8 3 8 3 10 6 C10.60839155 9.99800164 10.33251303 11.52201252 8 14.875 C3.88643706 17.78877375 1.97164984 17.55240554 -3 17 C-4.32 16.34 -5.64 15.68 -7 15 C-0.07 14.01 -0.07 14.01 7 13 C6.67 10.69 6.34 8.38 6 6 C5.01 5.67 4.02 5.34 3 5 C1.3125 3.5625 1.3125 3.5625 0 2 C0 1.34 0 0.68 0 0 Z " fill="#6C9C55" transform="translate(98,230)"/>
<path d="M0 0 C1.11083501 3.33250502 1.16759585 5.93038958 1.1875 9.4375 C1.20167969 10.57058594 1.21585938 11.70367187 1.23046875 12.87109375 C1.01071135 15.85457979 0.55843386 17.49295423 -1 20 C-1 19.01 -1 18.02 -1 17 C-1.66 17 -2.32 17 -3 17 C-3.04241723 14.66705225 -3.04092937 12.33297433 -3 10 C-2.67 9.67 -2.34 9.34 -2 9 C-1.67 6.36 -1.34 3.72 -1 1 C-8.59 1 -16.18 1 -24 1 C-24 0.67 -24 0.34 -24 0 C-21.31288976 -0.19647038 -18.62571669 -0.38239615 -15.9375 -0.5625 C-15.18533203 -0.61857422 -14.43316406 -0.67464844 -13.65820312 -0.73242188 C-8.92140498 -1.04000617 -4.67457788 -0.83807173 0 0 Z " fill="#6EAD53" transform="translate(168,103)"/>
<path d="M0 0 C2.70244341 1.03328719 5.06510275 2.04231679 7.5 3.625 C15.14040507 6.62658771 23.60432589 5.76288984 31.09765625 2.65625 C33 2 33 2 37 2 C37 2.66 37 3.32 37 4 C13.41125485 10.1586379 13.41125485 10.1586379 3.6640625 5.265625 C1.6679799 3.74747767 0.95349586 2.29224258 0 0 Z " fill="#7EA366" transform="translate(123,243)"/>
<path d="M0 0 C2.31 0 4.62 0 7 0 C7.33 11.22 7.66 22.44 8 34 C7.34 34 6.68 34 6 34 C4.53901155 31.0780231 4.88865099 28.50106525 4.90234375 25.2421875 C4.9037587 24.57913605 4.90517365 23.91608459 4.90663147 23.23294067 C4.91223246 21.11358137 4.924785 18.99432741 4.9375 16.875 C4.94251488 15.43880361 4.94707781 14.00260556 4.95117188 12.56640625 C4.96220218 9.04423655 4.97946741 5.52212855 5 2 C3.35 1.67 1.7 1.34 0 1 C0 0.67 0 0.34 0 0 Z " fill="#77A760" transform="translate(116,208)"/>
<path d="M0 0 C0.99 0.495 0.99 0.495 2 1 C2.47597366 3.70599842 2.84093629 6.33595404 3.125 9.0625 C3.21136719 9.82111328 3.29773438 10.57972656 3.38671875 11.36132812 C3.59939517 13.23996986 3.80075459 15.11988636 4 17 C4.33 17 4.66 17 5 17 C5 18.98 5 20.96 5 23 C5.66 23.33 6.32 23.66 7 24 C6.34 26.31 5.68 28.62 5 31 C2.72593085 27.58889628 2.09648738 24.5124705 1.375 20.5625 C1.24311279 19.85544922 1.11122559 19.14839844 0.9753418 18.41992188 C-0.09913493 12.25782912 -0.31961945 6.2503359 0 0 Z " fill="#71A754" transform="translate(7,134)"/>
<path d="M0 0 C0.33 0 0.66 0 1 0 C1.22582973 4.58264761 1.42764772 9.16604466 1.625 13.75 C1.68945312 15.05195312 1.75390625 16.35390625 1.8203125 17.6953125 C1.89765625 19.57089844 1.89765625 19.57089844 1.9765625 21.484375 C2.02893066 22.63647461 2.08129883 23.78857422 2.13525391 24.97558594 C2.00052571 27.98824449 1.80186915 29.59560409 0 32 C-2.80388496 32.62835477 -5.28828843 33.0148322 -8.125 33.25 C-8.87910156 33.32734375 -9.63320312 33.4046875 -10.41015625 33.484375 C-12.27182671 33.67289859 -14.13577938 33.83863238 -16 34 C-14.6875 32.0625 -14.6875 32.0625 -12 30 C-8.37 29.67 -4.74 29.34 -1 29 C-0.67 19.43 -0.34 9.86 0 0 Z " fill="#6EA354" transform="translate(97,59)"/>
<path d="M0 0 C0.99 0.33 1.98 0.66 3 1 C-5.09723984 5.26856507 -12.68460177 7.82336506 -21.66796875 9.53515625 C-23.98874466 9.96493358 -23.98874466 9.96493358 -26.17578125 10.62109375 C-28 11 -28 11 -30 10 C-30 9.01 -30 8.02 -30 7 C-29.40316406 6.98582031 -28.80632812 6.97164062 -28.19140625 6.95703125 C-18.87660593 6.44492484 -8.40854549 4.20427275 0 0 Z " fill="#76A761" transform="translate(168,226)"/>
<path d="M0 0 C1.46366342 0.39753821 2.9208935 0.81881384 4.375 1.25 C5.18710938 1.48203125 5.99921875 1.7140625 6.8359375 1.953125 C9.52285452 3.25293323 9.85632962 4.30635529 11 7 C11.92424187 8.13285646 12.88438775 9.2371981 13.875 10.3125 C16.82931797 13.68056767 19.02556077 16.97214397 21 21 C20.67 21.66 20.34 22.32 20 23 C19.47792969 22.33355469 18.95585937 21.66710937 18.41796875 20.98046875 C13.31331479 14.58847649 7.96000546 8.80214521 2.08984375 3.1171875 C0 1 0 1 0 0 Z " fill="#6DA050" transform="translate(196,46)"/>
<path d="M0 0 C-1.69482283 2.07022332 -2.60225747 2.92264216 -5.26953125 3.44140625 C-6.52830078 3.50134766 -6.52830078 3.50134766 -7.8125 3.5625 C-11.82836452 3.85605735 -15.26687304 4.37273953 -19 6 C-19.33 6.66 -19.66 7.32 -20 8 C-21.890625 8.59765625 -21.890625 8.59765625 -24.25 9.0625 C-25.05824219 9.22621094 -25.86648437 9.38992187 -26.69921875 9.55859375 C-27.45847656 9.70425781 -28.21773438 9.84992187 -29 10 C-30.010625 10.20625 -31.02125 10.4125 -32.0625 10.625 C-32.701875 10.74875 -33.34125 10.8725 -34 11 C-30.50451931 7.98975313 -26.59032071 6.49605119 -22.3125 4.9375 C-21.59860107 4.67437012 -20.88470215 4.41124023 -20.14916992 4.14013672 C-13.59974886 1.77273267 -7.070306 -0.45614877 0 0 Z " fill="#82AE68" transform="translate(109,8)"/>
<path d="M0 0 C0.83660156 0.50789062 1.67320313 1.01578125 2.53515625 1.5390625 C9.58480243 5.73428209 16.57210835 9.27868192 24.28735352 12.09619141 C28.90432509 13.80865018 28.90432509 13.80865018 30 16 C28.35 16 26.7 16 25 16 C25 15.34 25 14.68 25 14 C23.576875 13.9071875 23.576875 13.9071875 22.125 13.8125 C16.92872751 13.10828237 12.54728625 10.47950619 8 8 C8 7.34 8 6.68 8 6 C7.236875 5.71125 6.47375 5.4225 5.6875 5.125 C3 4 3 4 0 2 C0 1.34 0 0.68 0 0 Z " fill="#73A15E" transform="translate(67,215)"/>
<path d="M0 0 C0.33 0 0.66 0 1 0 C1.01981934 0.59538574 1.03963867 1.19077148 1.06005859 1.80419922 C1.15516126 4.49492153 1.26489842 7.18485148 1.375 9.875 C1.4059375 10.81214844 1.436875 11.74929687 1.46875 12.71484375 C1.50742188 13.61074219 1.54609375 14.50664062 1.5859375 15.4296875 C1.6173584 16.25710449 1.6487793 17.08452148 1.68115234 17.93701172 C1.82599137 20.21986085 1.82599137 20.21986085 4 22 C4 22.99 4 23.98 4 25 C4.886875 24.95875 5.77375 24.9175 6.6875 24.875 C9.97277013 24.99897246 12.05449295 25.61387904 15 27 C15 27.33 15 27.66 15 28 C7.81318681 29.1978022 7.81318681 29.1978022 4.6875 28.4375 C1.56890315 25.7809175 0.15835322 22.61545955 -0.2409668 18.54174805 C-0.29468493 15.73049921 -0.26176721 12.93572844 -0.1875 10.125 C-0.17396484 9.15046875 -0.16042969 8.1759375 -0.14648438 7.171875 C-0.11131962 4.78067137 -0.0621067 2.39063025 0 0 Z " fill="#6AAA4D" transform="translate(107,180)"/>
<path d="M0 0 C2.64 0.33 5.28 0.66 8 1 C8 1.66 8 2.32 8 3 C8.680625 3.103125 9.36125 3.20625 10.0625 3.3125 C13.62915989 4.14725019 16.66222194 5.49472754 20 7 C19.67 7.99 19.34 8.98 19 10 C12.01499761 8.07659354 5.95348061 5.15127876 0 1 C0 0.67 0 0.34 0 0 Z " fill="#73A853" transform="translate(62,232)"/>
<path d="M0 0 C2.81093662 2.81093662 2.33299068 4.7013292 2.375 8.625 C2.29093174 14.91718586 1.55801882 18.81545829 -2 24 C-2.99 24.33 -3.98 24.66 -5 25 C-4.6875 23.0625 -4.6875 23.0625 -4 21 C-3.01 20.67 -2.02 20.34 -1 20 C-0.67 13.4 -0.34 6.8 0 0 Z " fill="#73A35B" transform="translate(152,182)"/>
<path d="M0 0 C0.33 0 0.66 0 1 0 C1 8.25 1 16.5 1 25 C0.01 25.33 -0.98 25.66 -2 26 C-1.8604947 22.60387586 -1.71227678 19.20818542 -1.5625 15.8125 C-1.52318359 14.85279297 -1.48386719 13.89308594 -1.44335938 12.90429688 C-1.40146484 11.97294922 -1.35957031 11.04160156 -1.31640625 10.08203125 C-1.27974854 9.22843018 -1.24309082 8.3748291 -1.20532227 7.49536133 C-0.99468906 4.93545406 -0.55158464 2.50666757 0 0 Z " fill="#6BA151" transform="translate(8,107)"/>
<path d="M0 0 C0.33 0.66 0.66 1.32 1 2 C-0.5206699 6.5620097 -3.78314923 9.0799421 -7.5625 11.9375 C-10.20661636 13.95760277 -10.20661636 13.95760277 -12 17.25 C-12.66 18.1575 -13.32 19.065 -14 20 C-16.75 20.375 -16.75 20.375 -19 20 C-16.67788435 16.80709098 -14.18510689 14.22527981 -11.1875 11.6875 C-7.02101128 8.13855839 -3.49311818 4.20265782 0 0 Z " fill="#6DA255" transform="translate(212,193)"/>
<path d="M0 0 C0.66 0.33 1.32 0.66 2 1 C0.68 3.31 -0.64 5.62 -2 8 C-1.01 8.33 -0.02 8.66 1 9 C-1.97 9 -4.94 9 -8 9 C-8.33 7.68 -8.66 6.36 -9 5 C-7.54735962 4.1361871 -6.0876837 3.28419546 -4.625 2.4375 C-3.40683594 1.72400391 -3.40683594 1.72400391 -2.1640625 0.99609375 C-1.44992188 0.66738281 -0.73578125 0.33867187 0 0 Z " fill="#749A60" transform="translate(117,128)"/>
<path d="M0 0 C-0.79372288 6.54821376 -4.166694 11.68454822 -9 16 C-9.99 15.67 -10.98 15.34 -12 15 C-11.34 15 -10.68 15 -10 15 C-9.67 14.01 -9.34 13.02 -9 12 C-8.34 12 -7.68 12 -7 12 C-5.58622659 9.36095629 -4.62759865 6.92879371 -4 4 C-4.94875 4.515625 -5.8975 5.03125 -6.875 5.5625 C-7.90625 6.036875 -8.9375 6.51125 -10 7 C-10.66 6.67 -11.32 6.34 -12 6 C-10.89932004 5.18278283 -9.79430269 4.37140549 -8.6875 3.5625 C-8.07261719 3.11003906 -7.45773438 2.65757813 -6.82421875 2.19140625 C-4.57961848 0.72544676 -2.69750014 0 0 0 Z " fill="#6CB34B" transform="translate(152,113)"/>
<path d="M0 0 C3.33614412 2.73420986 4.81775456 6.41531218 6.5625 10.25 C6.86607422 10.89324219 7.16964844 11.53648438 7.48242188 12.19921875 C9.42094091 16.39723165 10.83492889 20.52519952 12 25 C11.01 25 10.02 25 9 25 C8.79503906 24.36191406 8.59007812 23.72382812 8.37890625 23.06640625 C8.10949219 22.24011719 7.84007812 21.41382812 7.5625 20.5625 C7.29566406 19.73878906 7.02882812 18.91507813 6.75390625 18.06640625 C6.17844506 16.03780412 6.17844506 16.03780412 5 15 C4.95936168 13.33382885 4.957279 11.66611905 5 10 C4.34 10 3.68 10 3 10 C0.96564469 6.27034861 0 4.33094958 0 0 Z " fill="#6B9F55" transform="translate(234,68)"/>
<path d="M0 0 C4.4100465 3.59766951 5.45854464 6.04415537 6.39453125 11.5859375 C7.28743068 15.14601395 9.11716171 17.97852461 11.07421875 21.0546875 C12 23 12 23 11 26 C0 5.93349169 0 5.93349169 0 0 Z " fill="#76A75B" transform="translate(12,166)"/>
<path d="M0 0 C-0.61726196 5.67355671 -1.27945952 11.33861055 -2 17 C-2.66 17 -3.32 17 -4 17 C-4.33 18.98 -4.66 20.96 -5 23 C-5.66 21.68 -6.32 20.36 -7 19 C-6.34 18.67 -5.68 18.34 -5 18 C-4.5763662 15.15223946 -4.24980647 12.36352229 -4 9.5 C-3.75019353 6.63647771 -3.4236338 3.84776054 -3 1 C-1 0 -1 0 0 0 Z " fill="#68AA4B" transform="translate(249,143)"/>
<path d="M0 0 C0.81404297 0.32484375 0.81404297 0.32484375 1.64453125 0.65625 C2.71767578 1.07390625 2.71767578 1.07390625 3.8125 1.5 C4.52019531 1.7784375 5.22789062 2.056875 5.95703125 2.34375 C8.11841216 3.1529162 8.11841216 3.1529162 11 3 C12.66666667 4.66666667 14.33333333 6.33333333 16 8 C18.27689756 9.4816402 20.59487545 10.72669877 23 12 C22.67 12.66 22.34 13.32 22 14 C12.78947368 10.57894737 12.78947368 10.57894737 11 7 C7.50639197 4.60438306 4.04334814 3.22240758 0 2 C0 1.34 0 0.68 0 0 Z " fill="#6CAB48" transform="translate(164,25)"/>
<path d="M0 0 C0.66 0 1.32 0 2 0 C2 6.27 2 12.54 2 19 C1.01 18.67 0.02 18.34 -1 18 C-1.11269443 11.8894576 -0.89604368 6.04829486 0 0 Z " fill="#6FA65C" transform="translate(136,214)"/>
<path d="M0 0 C4.16259759 1.4800347 7.58509308 3.5446929 11.25 6 C12.83554688 7.051875 12.83554688 7.051875 14.453125 8.125 C17 10 17 10 18 12 C12.61937792 10.48238864 8.77001228 9.30858546 5 5 C4.0925 4.46375 3.185 3.9275 2.25 3.375 C1.5075 2.92125 0.765 2.4675 0 2 C0 1.34 0 0.68 0 0 Z " fill="#74AA5C" transform="translate(186,21)"/>
<path d="M0 0 C0.33 0 0.66 0 1 0 C1.86606781 7.63472088 2.63695194 15.41308362 1 23 C0.34 23.33 -0.32 23.66 -1 24 C-1.02893932 20.37501666 -1.04677792 16.75006287 -1.0625 13.125 C-1.07087891 12.09246094 -1.07925781 11.05992188 -1.08789062 9.99609375 C-1.09111328 9.00996094 -1.09433594 8.02382812 -1.09765625 7.0078125 C-1.10289307 6.09660645 -1.10812988 5.18540039 -1.11352539 4.24658203 C-1 2 -1 2 0 0 Z " fill="#6CAF4B" transform="translate(78,100)"/>
<path d="M0 0 C1.1875 1.6875 1.1875 1.6875 2 4 C0.64520503 6.84506944 -0.77431099 8.77431099 -3 11 C-5.10232344 13.8684413 -5.10232344 13.8684413 -6 17 C-6.66 17 -7.32 17 -8 17 C-6.34211897 10.30108234 -4.33788364 5.39304453 0 0 Z " fill="#6EAC52" transform="translate(20,75)"/>
<path d="M0 0 C1.32 0 2.64 0 4 0 C4 2.31 4 4.62 4 7 C3.01 7.33 2.02 7.66 1 8 C0.896875 8.5775 0.79375 9.155 0.6875 9.75 C-0.40707864 13.33225738 -3.06823206 14.75439052 -6 17 C-5.33333333 15.66666667 -4.66666667 14.33333333 -4 13 C-3.525625 11.989375 -3.05125 10.97875 -2.5625 9.9375 C-1.19235517 7.36162772 -0.05792135 5.96437947 2 4 C2.33 3.01 2.66 2.02 3 1 C2.01 0.67 1.02 0.34 0 0 Z " fill="#6B9E53" transform="translate(115,135)"/>
<path d="M0 0 C0.66 0 1.32 0 2 0 C2.125 7.75 2.125 7.75 1 10 C1.020625 11.155 1.04125 12.31 1.0625 13.5 C1 17 1 17 -1 19 C-1.82810601 12.18491136 -2.50413785 6.48129797 0 0 Z " fill="#6DA64F" transform="translate(11,93)"/>
<path d="M0 0 C0 1.65 0 3.3 0 5 C-4.1205746 6.99785435 -7.45194365 7.17835515 -12 7 C-3.25 0 -3.25 0 0 0 Z " fill="#70A958" transform="translate(185,218)"/>
<path d="M0 0 C0 0.99 0 1.98 0 3 C-1.33333333 4.33333333 -2.66666667 5.66666667 -4 7 C-4.68753301 8.65816784 -5.35561283 10.32459336 -6 12 C-7.625 13.8125 -7.625 13.8125 -9 15 C-8.01 15.33 -7.02 15.66 -6 16 C-7.65 15.67 -9.3 15.34 -11 15 C-9.58319756 10.67953102 -7.46236215 7.99538801 -4.375 4.6875 C-3.55773437 3.80449219 -2.74046875 2.92148438 -1.8984375 2.01171875 C-0.95871094 1.01591797 -0.95871094 1.01591797 0 0 Z " fill="#749A5E" transform="translate(112,145)"/>
<path d="M0 0 C0.66 0 1.32 0 2 0 C0.6094742 3.15649355 -1.02033143 5.23989506 -3.5 7.625 C-4.41265625 8.51058594 -4.41265625 8.51058594 -5.34375 9.4140625 C-6.16359375 10.19910156 -6.16359375 10.19910156 -7 11 C-7.66 11.66 -8.32 12.32 -9 13 C-7.94845361 6.69072165 -7.94845361 6.69072165 -6 4 C-2.875 2.75 -2.875 2.75 0 2 C0 1.34 0 0.68 0 0 Z " fill="#6F9D59" transform="translate(53,51)"/>
<path d="M0 0 C3.1588274 1.18456028 6.21274705 2.53600038 9.25 4 C9.93578125 4.33 10.6215625 4.66 11.328125 5 C13 6 13 6 14 8 C8.58509109 7.56680729 5.24207578 6.43406135 1 3 C0.67 2.01 0.34 1.02 0 0 Z " fill="#6E9E59" transform="translate(123,243)"/>
<path d="M0 0 C0.8971875 0.309375 0.8971875 0.309375 1.8125 0.625 C1.8125 1.285 1.8125 1.945 1.8125 2.625 C-0.14677063 4.3393618 -2.14630212 6.00905168 -4.1875 7.625 C-5.1775 6.965 -6.1675 6.305 -7.1875 5.625 C-5.69046729 2.17030914 -4.27938051 -0.73360809 0 0 Z " fill="#6EAE4F" transform="translate(193.1875,213.375)"/>
<path d="M0 0 C0 3.41099168 -0.49145406 6.63088314 -1 10 C-1.66 9.67 -2.32 9.34 -3 9 C-4.84322385 10.84322385 -6.37977409 12.96165128 -8 15 C-8.66 14.67 -9.32 14.34 -10 14 C-8.8966898 12.41606974 -7.79231456 10.83288132 -6.6875 9.25 C-5.76517578 7.92742187 -5.76517578 7.92742187 -4.82421875 6.578125 C-3.25166935 4.35567831 -1.64631488 2.16807006 0 0 Z " fill="#74A754" transform="translate(223,177)"/>
<path d="M0 0 C3.89698069 -0.45313729 5.50480478 -0.37427545 8.6875 2.03125 C11.54344829 5.6976701 11.58867664 8.37242933 11.3125 12.8125 C11.27866211 13.85180664 11.27866211 13.85180664 11.24414062 14.91210938 C11.18562661 16.60901573 11.0959548 18.30479861 11 20 C10.67 20 10.34 20 10 20 C9.67 14.72 9.34 9.44 9 4 C8.01 4 7.02 4 6 4 C6 3.34 6 2.68 6 2 C3.03 1.505 3.03 1.505 0 1 C0 0.67 0 0.34 0 0 Z " fill="#70955C" transform="translate(102,42)"/>
<path d="M0 0 C0 4.79470293 -2.30005543 8.98703447 -5.37890625 12.6328125 C-6.54604972 13.79663077 -7.76808967 14.90496859 -9 16 C-8.6875 13.625 -8.6875 13.625 -8 11 C-7.01 10.34 -6.02 9.68 -5 9 C-5.061875 7.824375 -5.061875 7.824375 -5.125 6.625 C-5 4 -5 4 -2.5 1.6875 C-1.2625 0.8521875 -1.2625 0.8521875 0 0 Z " fill="#6DA74F" transform="translate(229,193)"/>
<path d="M0 0 C0.66 0 1.32 0 2 0 C1.60079865 1.75406653 1.17984334 3.50318982 0.75 5.25 C0.51796875 6.22453125 0.2859375 7.1990625 0.046875 8.203125 C-1.11799266 11.31523411 -2.51330545 12.84212456 -5 15 C-4.55036936 10.32384131 -3.98662391 7.60883722 -1 4 C-0.29485154 1.85266073 -0.29485154 1.85266073 0 0 Z " fill="#70A15A" transform="translate(245,160)"/>
<path d="M0 0 C2 1 2 1 3.1875 3.5625 C5.51692698 7.98037875 8.62220202 11.35382903 12 15 C11.67 15.66 11.34 16.32 11 17 C6.35106198 12.70364997 2.7556889 8.73183291 0 3 C0 2.01 0 1.02 0 0 Z " fill="#73A05C" transform="translate(78,158)"/>
<path d="M0 0 C0.66 0.33 1.32 0.66 2 1 C-1.3 4.3 -4.6 7.6 -8 11 C-8 9.33333333 -8 7.66666667 -8 6 C-7.01 6 -6.02 6 -5 6 C-4.9175 5.38125 -4.835 4.7625 -4.75 4.125 C-4 2 -4 2 -2.0625 0.6875 C-1.381875 0.460625 -0.70125 0.23375 0 0 Z " fill="#6EA354" transform="translate(218,209)"/>
<path d="M0 0 C2.07324138 3.10986207 2.27392186 3.89108387 2.25 7.4375 C2.25515625 8.19933594 2.2603125 8.96117187 2.265625 9.74609375 C1.9747292 12.21443018 1.22975656 13.857686 0 16 C-0.66 16 -1.32 16 -2 16 C-1.34 10.72 -0.68 5.44 0 0 Z " fill="#739761" transform="translate(165,141)"/>
<path d="M0 0 C1.32 0 2.64 0 4 0 C4 1.65 4 3.3 4 5 C3.34 5 2.68 5 2 5 C1.67 8.63 1.34 12.26 1 16 C0.67 16 0.34 16 0 16 C0 10.72 0 5.44 0 0 Z " fill="#41C532" transform="translate(96,54)"/>
<path d="M0 0 C-0.32433508 5.35152885 -3.49704824 8.28280043 -7 12 C-7 8.60406522 -6.47834052 7.93380119 -4.5 5.3125 C-4.0359375 4.68988281 -3.571875 4.06726563 -3.09375 3.42578125 C-2.7328125 2.95527344 -2.371875 2.48476562 -2 2 C-3.32 1.67 -4.64 1.34 -6 1 C-4 0 -4 0 0 0 Z " fill="#7A9C69" transform="translate(158,108)"/>
<path d="M0 0 C0.66 0.33 1.32 0.66 2 1 C-1.75276392 4.29788344 -5.36057782 6.17736986 -10 8 C-10.969375 8.391875 -11.93875 8.78375 -12.9375 9.1875 C-13.618125 9.455625 -14.29875 9.72375 -15 10 C-12.0761589 6.81980317 -9.16598831 4.74648691 -5.375 2.6875 C-4.41335937 2.15511719 -3.45171875 1.62273438 -2.4609375 1.07421875 C-1.64882812 0.71972656 -0.83671875 0.36523438 0 0 Z " fill="#89AD6E" transform="translate(73,19)"/>
<path d="M0 0 C3.96 0 7.92 0 12 0 C12 1.32 12 2.64 12 4 C11.2575 3.649375 10.515 3.29875 9.75 2.9375 C7.12134456 1.75787154 7.12134456 1.75787154 4.875 2.5625 C4.25625 2.706875 3.6375 2.85125 3 3 C2.01 2.01 1.02 1.02 0 0 Z " fill="#689551" transform="translate(140,131)"/>
<path d="M0 0 C-1.73901801 2.14651068 -2.65698264 2.93217485 -5.41015625 3.4765625 C-6.28542969 3.52554687 -7.16070312 3.57453125 -8.0625 3.625 C-11.66869449 3.7917857 -11.66869449 3.7917857 -15 5 C-14.67 4.01 -14.34 3.02 -14 2 C-9.619084 0.30737336 -4.67375574 -0.30153263 0 0 Z " fill="#77A15F" transform="translate(109,8)"/>
<path d="M0 0 C-0.99 0.33 -1.98 0.66 -3 1 C-3.474375 1.495 -3.94875 1.99 -4.4375 2.5 C-6.26517557 4.25456855 -7.58026215 4.4353945 -10 5 C-10.33 5.66 -10.66 6.32 -11 7 C-11.66 6.67 -12.32 6.34 -13 6 C-11.40551709 2.6338694 -10.49046486 1.2295793 -7.0625 -0.375 C-4.15508914 -0.96834915 -2.72233025 -1.0470501 0 0 Z " fill="#6AB14B" transform="translate(91,92)"/>
<path d="M0 0 C0.66 0.33 1.32 0.66 2 1 C-0.90673575 5.22797927 -0.90673575 5.22797927 -3 7 C-6.8125 7.375 -6.8125 7.375 -10 7 C-8.72070154 4.44140308 -7.55728932 4.13851266 -5 2.9375 C-2.30092276 1.75531476 -2.30092276 1.75531476 0 0 Z " fill="#6DB04D" transform="translate(134,120)"/>
<path d="M0 0 C1.1055189 0.93590504 2.20935453 1.87379858 3.3125 2.8125 C3.92738281 3.33457031 4.54226562 3.85664062 5.17578125 4.39453125 C8.51952278 7.3373102 8.51952278 7.3373102 10 9 C10 9.66 10 10.32 10 11 C7 10 7 10 5 7 C4.01 6.67 3.02 6.34 2 6 C0.8125 2.9375 0.8125 2.9375 0 0 Z " fill="#6FA45C" transform="translate(213,41)"/>
<path d="M0 0 C0.66 0.33 1.32 0.66 2 1 C1.979375 2.0725 1.95875 3.145 1.9375 4.25 C1.9857984 7.14790424 2.13155885 9.28612141 3 12 C2.34 12 1.68 12 1 12 C0.67 12.66 0.34 13.32 0 14 C-0.19456705 12.04235617 -0.38044247 10.08384679 -0.5625 8.125 C-0.66691406 7.03445312 -0.77132812 5.94390625 -0.87890625 4.8203125 C-1 2 -1 2 0 0 Z " fill="#71B348" transform="translate(119,180)"/>
<path d="M0 0 C0.66 0.33 1.32 0.66 2 1 C0.02 3.97 0.02 3.97 -2 7 C-3.32 6.34 -4.64 5.68 -6 5 C-2.25 1.125 -2.25 1.125 0 0 Z " fill="#77AC59" transform="translate(117,128)"/>
<path d="M0 0 C0.33 0 0.66 0 1 0 C1.144375 1.0725 1.28875 2.145 1.4375 3.25 C1.85389686 6.75877508 1.85389686 6.75877508 2.6875 9.0625 C3.16363112 12.01451293 2.05701147 14.26420561 1 17 C0.67 17 0.34 17 0 17 C0 11.39 0 5.78 0 0 Z " fill="#57B540" transform="translate(20,120)"/>
<path d="M0 0 C0.33 0.99 0.66 1.98 1 3 C-0.43359375 5.04296875 -0.43359375 5.04296875 -2.4375 7.1875 C-3.09621094 7.90292969 -3.75492188 8.61835937 -4.43359375 9.35546875 C-5.20896484 10.16951172 -5.20896484 10.16951172 -6 11 C-6.99 10.67 -7.98 10.34 -9 10 C-8.34 10 -7.68 10 -7 10 C-6.67 9.01 -6.34 8.02 -6 7 C-5.34 7 -4.68 7 -4 7 C-3.71125 6.401875 -3.4225 5.80375 -3.125 5.1875 C-2 3 -2 3 0 0 Z " fill="#699D54" transform="translate(149,118)"/>
<path d="M0 0 C-5.71735105 2.45029331 -9.79029227 3.33266291 -16 3 C-16 2.67 -16 2.34 -16 2 C-13.89829344 1.46932659 -11.79352402 0.95077143 -9.6875 0.4375 C-7.92986328 0.00244141 -7.92986328 0.00244141 -6.13671875 -0.44140625 C-3 -1 -3 -1 0 0 Z " fill="#70AF51" transform="translate(155,246)"/>
<path d="M0 0 C-1.15173355 2.46800047 -2.04783565 4.04783565 -4 6 C-6.625 6.625 -6.625 6.625 -9 7 C-8.07347299 5.82460004 -7.13336613 4.65989423 -6.1875 3.5 C-5.66542969 2.8503125 -5.14335938 2.200625 -4.60546875 1.53125 C-3 0 -3 0 0 0 Z " fill="#83B35E" transform="translate(49,37)"/>
<path d="M0 0 C0.66 0 1.32 0 2 0 C1.6875 1.875 1.6875 1.875 1 4 C-2.22791555 6.1519437 -3.28400809 6.20086443 -7 6 C-6.21625 5.38125 -5.4325 4.7625 -4.625 4.125 C-2.03162353 2.10141339 -2.03162353 2.10141339 0 0 Z " fill="#73A35B" transform="translate(162,158)"/>
<path d="M0 0 C3.39417765 3.12621626 5.6062718 5.56541027 7 10 C3.64501065 8.61172854 1.84949545 7.14414226 0 4 C0 2.68 0 1.36 0 0 Z " fill="#6DA155" transform="translate(224,53)"/>
<path d="M0 0 C3.63 0 7.26 0 11 0 C8.60236815 2.39763185 7.66726502 2.34280586 4.375 2.625 C3.55773437 2.69976562 2.74046875 2.77453125 1.8984375 2.8515625 C1.27195313 2.90054688 0.64546875 2.94953125 0 3 C0 2.01 0 1.02 0 0 Z " fill="#74A55D" transform="translate(136,207)"/>
<path d="M0 0 C3.98175544 2.10148204 6.35039045 4.36905358 9 8 C6.525 7.01 6.525 7.01 4 6 C4 5.34 4 4.68 4 4 C2.68 3.67 1.36 3.34 0 3 C0 2.01 0 1.02 0 0 Z " fill="#70A55B" transform="translate(204,33)"/>
<path d="M0 0 C-1 2 -1 2 -4.25 3.125 C-7.37700635 3.85463482 -9.82622905 4.19234975 -13 4 C-8.62615587 1.08410391 -5.29457529 -0.30254716 0 0 Z " fill="#70AC52" transform="translate(159,164)"/>
<path d="M0 0 C0.99 0.33 1.98 0.66 3 1 C0.525 4.465 0.525 4.465 -2 8 C-2.66 7.67 -3.32 7.34 -4 7 C-4 6.34 -4 5.68 -4 5 C-3.34 4.67 -2.68 4.34 -2 4 C-0.86649466 1.98330173 -0.86649466 1.98330173 0 0 Z " fill="#71A357" transform="translate(41,64)"/>
<path d="M0 0 C4.38462134 0.50109958 6.8000997 1.98295115 10 5 C10 5.66 10 6.32 10 7 C6.42032008 5.34784004 3.22017048 3.26875648 0 1 C0 0.67 0 0.34 0 0 Z " fill="#7AA45F" transform="translate(186,39)"/>
<path d="M0 0 C1.32 0 2.64 0 4 0 C2.25 3.875 2.25 3.875 0 5 C0 4.34 0 3.68 0 3 C-1.32 3.33 -2.64 3.66 -4 4 C-3.67 3.34 -3.34 2.68 -3 2 C-2.01 2 -1.02 2 0 2 C0 1.34 0 0.68 0 0 Z " fill="#72AC53" transform="translate(152,110)"/>
<path d="M0 0 C3.60296594 -0.41176754 4.78402067 -0.1535853 7.8125 2 C8.534375 2.66 9.25625 3.32 10 4 C5.66905042 4 3.72965139 3.03435531 0 1 C0 0.67 0 0.34 0 0 Z " fill="#78AA5C" transform="translate(177,34)"/>
<path d="M0 0 C0 0.66 0 1.32 0 2 C-2.75078884 2.91692961 -4.35948913 3.10886083 -7.1875 3.0625 C-9.0746875 3.0315625 -9.0746875 3.0315625 -11 3 C-11 2.67 -11 2.34 -11 2 C-7.12315913 0.80712589 -4.08378077 0 0 0 Z " fill="#75A45B" transform="translate(160,245)"/>
<path d="M0 0 C0.33 0.99 0.66 1.98 1 3 C-1.31 4.98 -3.62 6.96 -6 9 C-5.34 7.68 -4.68 6.36 -4 5 C-3.67 4.278125 -3.34 3.55625 -3 2.8125 C-2 1 -2 1 0 0 Z " fill="#6AA94E" transform="translate(115,143)"/>
<path d="M0 0 C2.97 0.33 5.94 0.66 9 1 C9 1.66 9 2.32 9 3 C2.25 2.25 2.25 2.25 0 0 Z " fill="#76A864" transform="translate(82,242)"/>
<path d="M0 0 C-6.625 3.125 -6.625 3.125 -10 2 C-9.67 1.34 -9.34 0.68 -9 0 C-5.44307323 -0.85056945 -3.50729422 -1.16909807 0 0 Z " fill="#719E5D" transform="translate(177,241)"/>
<path d="M0 0 C3.37503669 1.1858237 5.64722731 2.27573689 8 5 C5.125 4.75 5.125 4.75 2 4 C0.625 1.9375 0.625 1.9375 0 0 Z " fill="#7CA763" transform="translate(186,21)"/>
</svg>
